<?xml version="1.0" encoding="utf-8"?>
<!-- Generator: Adobe Illustrator 21.1.0, SVG Export Plug-In . SVG Version: 6.00 Build 0)  -->
<svg version="1.1" id="Layer_1" xmlns="http://www.w3.org/2000/svg" xmlns:xlink="http://www.w3.org/1999/xlink" x="0px" y="0px"
	 viewBox="0 0 1000 523" style="enable-background:new 0 0 1000 523;" xml:space="preserve">
<g>
	<path d="M107.2,71h27.2v244.8c0,7.7,2.1,13.8,6.4,18.2c4.3,4.4,10.3,6.6,18,6.6c2.9,0,6.4-0.4,10.4-1.2c4-0.8,7.7-1.9,11.2-3.2
		l4.8,22c-5.1,2.1-11.3,3.9-18.6,5.2c-7.3,1.3-13.7,2-19,2c-12.5,0-22.4-3.5-29.6-10.6c-7.2-7.1-10.8-17-10.8-29.8V71z"/>
	<path d="M303.6,367c-15.2,0-29.1-2.9-41.6-8.6c-12.5-5.7-23.4-13.5-32.6-23.4c-9.2-9.9-16.3-21.3-21.4-34.4
		c-5.1-13.1-7.6-26.8-7.6-41.2c0-14.7,2.6-28.5,7.8-41.6c5.2-13.1,12.4-24.5,21.6-34.4c9.2-9.9,20.1-17.7,32.6-23.6
		c12.5-5.9,26.3-8.8,41.2-8.8c14.9,0,28.7,2.9,41.4,8.8c12.7,5.9,23.6,13.7,32.8,23.6c9.2,9.9,16.4,21.3,21.6,34.4
		c5.2,13.1,7.8,26.9,7.8,41.6c0,14.4-2.5,28.1-7.6,41.2c-5.1,13.1-12.2,24.5-21.4,34.4c-9.2,9.9-20.1,17.7-32.8,23.4
		C332.7,364.1,318.8,367,303.6,367z M228,259.8c0,11.7,2,22.6,6,32.6s9.4,18.8,16.2,26.4c6.8,7.6,14.8,13.5,24,17.8
		c9.2,4.3,19,6.4,29.4,6.4c10.4,0,20.2-2.2,29.4-6.6c9.2-4.4,17.3-10.4,24.2-18c6.9-7.6,12.4-16.5,16.4-26.6c4-10.1,6-21.1,6-32.8
		c0-11.5-2-22.3-6-32.6c-4-10.3-9.5-19.2-16.4-26.8c-6.9-7.6-15-13.6-24.2-18c-9.2-4.4-19-6.6-29.4-6.6c-10.4,0-20.1,2.2-29.2,6.6
		c-9.1,4.4-17.1,10.5-24,18.2c-6.9,7.7-12.4,16.7-16.4,27C230,237.1,228,248.1,228,259.8z"/>
	<path d="M536.4,365.8c-14.4,0-27.5-3-39.4-9c-11.9-6-22.1-13.9-30.8-23.8c-8.7-9.9-15.4-21.2-20.2-34c-4.8-12.8-7.2-26-7.2-39.6
		c0-14.4,2.3-28.2,7-41.4c4.7-13.2,11.3-24.7,19.8-34.6c8.5-9.9,18.7-17.7,30.6-23.6c11.9-5.9,25-8.8,39.4-8.8
		c17.9,0,33.3,4.5,46.4,13.4c13.1,8.9,24.3,20.2,33.6,33.8v-43.6H640v209.2c0,14.4-2.7,27.1-8.2,38.2c-5.5,11.1-12.8,20.3-22,27.8
		c-9.2,7.5-20,13.1-32.4,16.8c-12.4,3.7-25.5,5.6-39.4,5.6c-24,0-43.3-4.3-58-12.8c-14.7-8.5-26.5-20-35.6-34.4l16.8-13.2
		c8.3,13.3,19.2,23.1,32.8,29.4c13.6,6.3,28.3,9.4,44,9.4c10.1,0,19.7-1.4,28.8-4.2c9.1-2.8,17-6.9,23.8-12.4
		c6.8-5.5,12.2-12.4,16.2-20.8c4-8.4,6-18.2,6-29.4v-41.2c-8,13.3-18.9,23.9-32.8,31.6C566.1,361.9,551.6,365.8,536.4,365.8z
		 M544,343c8,0,15.9-1.5,23.6-4.4c7.7-2.9,14.7-6.9,21-11.8c6.3-4.9,11.5-10.5,15.8-16.6c4.3-6.1,7.1-12.4,8.4-18.8V227
		c-2.9-7.5-6.9-14.4-12-20.8c-5.1-6.4-10.8-11.9-17.2-16.4c-6.4-4.5-13.3-8.1-20.6-10.8c-7.3-2.7-14.7-4-22.2-4
		c-11.7,0-22.2,2.5-31.4,7.4c-9.2,4.9-17,11.4-23.4,19.4c-6.4,8-11.3,17.1-14.6,27.2c-3.3,10.1-5,20.4-5,30.8c0,11.2,2,21.9,6,32
		c4,10.1,9.5,19,16.6,26.6c7.1,7.6,15.3,13.6,24.6,18C522.9,340.8,533.1,343,544,343z"/>
	<path d="M788.8,367c-15.2,0-29.1-2.9-41.6-8.6c-12.5-5.7-23.4-13.5-32.6-23.4c-9.2-9.9-16.3-21.3-21.4-34.4
		c-5.1-13.1-7.6-26.8-7.6-41.2c0-14.7,2.6-28.5,7.8-41.6c5.2-13.1,12.4-24.5,21.6-34.4c9.2-9.9,20.1-17.7,32.6-23.6
		c12.5-5.9,26.3-8.8,41.2-8.8c14.9,0,28.7,2.9,41.4,8.8c12.7,5.9,23.6,13.7,32.8,23.6c9.2,9.9,16.4,21.3,21.6,34.4
		c5.2,13.1,7.8,26.9,7.8,41.6c0,14.4-2.5,28.1-7.6,41.2c-5.1,13.1-12.2,24.5-21.4,34.4c-9.2,9.9-20.1,17.7-32.8,23.4
		C817.9,364.1,804,367,788.8,367z M713.2,259.8c0,11.7,2,22.6,6,32.6s9.4,18.8,16.2,26.4c6.8,7.6,14.8,13.5,24,17.8
		c9.2,4.3,19,6.4,29.4,6.4c10.4,0,20.2-2.2,29.4-6.6s17.3-10.4,24.2-18c6.9-7.6,12.4-16.5,16.4-26.6c4-10.1,6-21.1,6-32.8
		c0-11.5-2-22.3-6-32.6c-4-10.3-9.5-19.2-16.4-26.8c-6.9-7.6-15-13.6-24.2-18s-19-6.6-29.4-6.6c-10.4,0-20.1,2.2-29.2,6.6
		c-9.1,4.4-17.1,10.5-24,18.2c-6.9,7.7-12.4,16.7-16.4,27C715.2,237.1,713.2,248.1,713.2,259.8z"/>
</g>
</svg>
